# xmcd
# 
# Track frame offsets:
#     150
#     14377
#     30925
#     42868
#     55425
#     68341
#     80170
#     99210
#     115128
#     132238
#     145435
# 
# Disc length: 2217
# 
# Revision: 0
# Processed by: cddbd v1.5.2PL0 Copyright (c) Steve Scherf et al.
# Submitted via: fre:ac v1.0.17
# 
DISCID=8b08a70b
DTITLE=Kenny Rogers - Daytime Friends
DYEAR=1977
DGENRE=Country
TTITLE0=Daytime Friends
TTITLE1=Desperado
TTITLE2=Rock and Roll Man
TTITLE3=Lying Again
TTITLE4=I'll Just Write My Music and Sing My Songs
TTITLE5=My World Begins and Ends With You
TTITLE6=Sweet Music Man
TTITLE7=Am I Too Late
TTITLE8=We Don't Make Love Anymore
TTITLE9=Ghost of Another Man
TTITLE10=Let Me Sing For You
EXTD=
EXTT0=
EXTT1=
EXTT2=
EXTT3=
EXTT4=
EXTT5=
EXTT6=
EXTT7=
EXTT8=
EXTT9=
EXTT10=
PLAYORDER=
